<svg width="100%" height="100%" viewBox="0 0 70 70" fill="none" xmlns="http://www.w3.org/2000/svg">
<path  className='svg' fill-rule="evenodd" clip-rule="evenodd" d="M43.7485 20.4166H49.5818V34.9999C49.5818 42.2068 50.1345 43.7499 52.4985 43.7499C56.3028 43.7499 58.3318 41.9508 58.3318 34.9999C58.3318 19.5727 50.5941 11.6666 34.9989 11.6666C24.8954 11.6679 15.9406 18.1715 12.8139 27.779C9.6872 37.3865 13.0991 47.9148 21.2665 53.8622C29.434 59.8097 40.5014 59.8249 48.6852 53.8999L52.106 58.6249C41.8763 66.0311 28.0421 66.0121 17.8327 58.5778C7.62337 51.1435 3.35855 37.9831 7.26692 25.9738C11.1753 13.9644 22.3688 5.83484 34.9985 5.83325C53.8442 5.83325 64.1652 16.3787 64.1652 34.9999C64.1652 45.3391 59.3786 49.5833 52.4985 49.5833C48.5789 49.5833 46.3357 48.3195 45.1043 45.5141C42.4831 48.0341 38.9217 49.5833 34.9985 49.5833C26.9443 49.5833 20.4152 43.0541 20.4152 34.9999C20.4152 26.9458 26.9443 20.4166 34.9985 20.4166C38.2815 20.4166 41.3112 21.5015 43.7485 23.3322V20.4166ZM43.7485 34.9999C43.7485 39.8324 39.831 43.7499 34.9985 43.7499C30.166 43.7499 26.2485 39.8324 26.2485 34.9999C26.2485 30.1674 30.166 26.2499 34.9985 26.2499C39.831 26.2499 43.7485 30.1674 43.7485 34.9999Z" fill="white"/>
</svg>
