<svg width="100%" height="100%" viewBox="0 0 70 70" fill="none" xmlns="http://www.w3.org/2000/svg">
<path className='svg' fill-rule="evenodd" clip-rule="evenodd" d="M11.6667 5.83325H58.3333C61.555 5.83325 64.1667 8.44492 64.1667 11.6666V58.3333C64.1667 61.5549 61.555 64.1666 58.3333 64.1666H11.6667C8.44501 64.1666 5.83334 61.5549 5.83334 58.3333V11.6666C5.83334 8.44492 8.44501 5.83325 11.6667 5.83325ZM11.6667 11.6666V58.3332H58.3333V11.6666H11.6667ZM32.4714 35.0127H37.9167V52.4999H43.75V35.0127H49.5321V29.1794H43.75V26.2499C43.75 24.6391 45.0558 23.3333 46.6667 23.3333H49.5833V17.4999H46.6667C41.8342 17.4999 37.9167 21.4174 37.9167 26.2499V29.1794H32.4714V35.0127Z" fill="white"/>
</svg>
