<svg width="100%" height="100%" viewBox="0 0 70 70" fill="none" xmlns="http://www.w3.org/2000/svg">
<path className='svg' fill-rule="evenodd" clip-rule="evenodd" d="M29.2169 58.3439C29.2321 58.7022 29.1934 59.0518 29.118 59.4057C28.9854 60.0275 28.7294 60.6856 28.367 61.2935C27.3367 63.0219 25.5866 64.1751 23.3333 64.1751C18.0253 64.1751 15.942 61.5711 13.3336 55.05C11.567 50.6335 10.7336 49.5918 8.75 49.5918L8.75 43.7585C14.058 43.7585 16.1413 46.3625 18.7497 52.8836C20.5163 57.3 21.3497 58.3418 23.3333 58.3418C23.3333 57.4955 23.3217 56.7458 23.2974 55.7306C23.2402 53.3512 23.2336 52.8655 23.3374 52.2294C23.3789 50.8408 23.7374 49.8555 24.4562 48.8776C17.9468 47.4606 13.5564 44.5341 11.0366 39.7874L10.0926 37.5675C9.17305 34.9247 8.75 31.9302 8.75 28.4719C8.75 24.489 9.96434 20.9279 12.2326 17.951C11.525 15.1214 11.6219 11.6643 13.1842 7.76001L13.6947 6.48424L15.0035 6.06559C15.1788 6.00954 15.3918 5.95892 15.6421 5.91964C18.1906 5.51965 21.817 6.47398 26.5578 9.51071C29.3527 8.86285 32.2958 8.53576 35.2589 8.53576C37.9068 8.53576 40.5401 8.80271 43.0548 9.32899C47.6673 6.44052 51.194 5.53458 53.674 5.92015C53.9213 5.95861 54.1322 6.00827 54.306 6.06338L55.6229 6.481L56.134 7.76455C57.5008 11.1967 57.7354 14.3597 57.238 17.1274C59.8455 20.2562 61.25 24.1026 61.25 28.4719C61.25 32.1555 60.9861 34.9253 60.2275 37.62L59.4268 39.8173C57.3308 44.5589 52.7084 47.5182 45.5803 48.9277C46.3212 49.9536 46.6667 50.995 46.6667 52.5085V55.4251C46.6667 56.8386 46.6667 56.8821 46.6634 58.3418C46.6701 58.4466 46.6788 58.498 46.6884 58.5299C46.686 58.5308 46.6667 64.1751 46.6667 64.1751C44.1823 64.1751 42.335 62.9635 41.4265 61.0523C40.9555 60.0614 40.8147 59.1153 40.8333 58.3004V52.5085C40.8333 52.2639 40.8248 52.2498 40.2293 51.6542C38.6373 50.0623 37.9167 48.8611 37.9167 46.6751V44.0367L40.5419 43.7731C48.3564 42.9883 52.6066 40.8181 54.0157 37.6478L54.6743 35.8475C55.1983 33.9651 55.4167 31.6728 55.4167 28.4719C55.4167 25.0708 54.2293 22.2613 51.9837 20.0166L50.7494 18.7828L51.2532 17.1119C51.7007 15.6275 51.8071 13.871 51.3336 11.8675C51.255 11.8875 51.1732 11.9092 51.0883 11.9328C49.5266 12.3676 47.5768 13.3005 45.2271 14.8711L44.1555 15.5874L42.9043 15.2772C40.4845 14.6772 37.8842 14.3691 35.2589 14.3691C32.3396 14.3691 29.4539 14.7405 26.788 15.4673L25.487 15.822L24.3741 15.0606C21.9439 13.3981 19.9251 12.4095 18.3062 11.9477C18.1906 11.9147 18.0805 11.8852 17.9759 11.8589C17.4111 14.1776 17.6345 16.0826 18.2065 17.5121L18.8924 19.226L17.6367 20.5794C15.636 22.7359 14.5833 25.3602 14.5833 28.4719C14.5833 31.3208 14.9168 33.6814 15.528 35.4597L16.2912 37.2663C18.1992 40.8466 22.2518 43.0006 29.4775 43.7751L32.0833 44.0544V46.6751C32.0833 48.8611 31.3627 50.0623 29.7707 51.6542C29.1752 52.2498 29.1667 52.2639 29.1667 52.5085L29.1164 53.0477C29.0831 53.2245 29.0831 53.6811 29.129 55.5905C29.1501 56.4686 29.1621 57.1637 29.1656 57.89C29.2005 58.0404 29.2057 58.1374 29.2169 58.3439Z" fill="white"/>
</svg>
