<svg width="100%" height="100%" viewBox="0 0 70 70" fill="none" xmlns="http://www.w3.org/2000/svg">
<path className='svg' fill-rule="evenodd" clip-rule="evenodd" d="M46.6667 5.83325H23.3333C13.6684 5.83325 5.83333 13.6683 5.83333 23.3333V46.6666C5.83333 56.3316 13.6684 64.1666 23.3333 64.1666H46.6667C56.3317 64.1666 64.1667 56.3316 64.1667 46.6666V23.3333C64.1667 13.6683 56.3317 5.83325 46.6667 5.83325ZM11.6667 23.3333C11.6667 16.8899 16.89 11.6666 23.3333 11.6666H46.6667C53.11 11.6666 58.3333 16.8899 58.3333 23.3333V46.6666C58.3333 53.1099 53.11 58.3332 46.6667 58.3332H23.3333C16.89 58.3332 11.6667 53.1099 11.6667 46.6666V23.3333ZM35 49.5832C26.9458 49.5832 20.4167 43.0541 20.4167 34.9999C20.4167 26.9458 26.9458 20.4166 35 20.4166C43.0542 20.4166 49.5833 26.9458 49.5833 34.9999C49.5833 43.0541 43.0542 49.5832 35 49.5832ZM35 43.7499C39.8325 43.7499 43.75 39.8324 43.75 34.9999C43.75 30.1674 39.8325 26.2499 35 26.2499C30.1675 26.2499 26.25 30.1674 26.25 34.9999C26.25 39.8324 30.1675 43.7499 35 43.7499ZM52.5 20.4166C52.5 22.0274 51.1942 23.3333 49.5833 23.3333C47.9725 23.3333 46.6667 22.0274 46.6667 20.4166C46.6667 18.8058 47.9725 17.4999 49.5833 17.4999C51.1942 17.4999 52.5 18.8058 52.5 20.4166Z" fill="white"/>
</svg>
